<svg xmlns="http://www.w3.org/2000/svg" viewBox="0 0 758.4 132.25"><defs><style>.cls-1{fill:none;stroke:#fbb03b;stroke-miterlimit:10;}</style></defs><title>Asset 1</title><g id="Layer_2" data-name="Layer 2"><g id="Layer_4" data-name="Layer 4"><path class="cls-1" d="M49.51,68.24v35.19H42.07V68.24L.89,1.23H9.07L46,61.38,83,1.23h7.73Z"/><path class="cls-1" d="M101.71,99.05a35.71,35.71,0,0,1-13.65-13.8,40,40,0,0,1-5-19.93,40,40,0,0,1,5-19.93A35.75,35.75,0,0,1,101.71,31.6a40.7,40.7,0,0,1,39,0,35.82,35.82,0,0,1,13.65,13.79,40,40,0,0,1,5,19.93,40,40,0,0,1-5,19.93,35.77,35.77,0,0,1-13.65,13.8,40.77,40.77,0,0,1-39,0Zm35.18-5.7a29.25,29.25,0,0,0,11-11.38,34,34,0,0,0,4-16.65,34,34,0,0,0-4-16.64,29.34,29.34,0,0,0-11-11.39,32.16,32.16,0,0,0-31.39,0,29.41,29.41,0,0,0-11,11.39,33.94,33.94,0,0,0-4,16.64,34,34,0,0,0,4,16.65,29.32,29.32,0,0,0,11,11.38,32.16,32.16,0,0,0,31.39,0Z"/><path class="cls-1" d="M248.66,27.22v76.21h-7V87.08a28.3,28.3,0,0,1-11.24,12.48A33.51,33.51,0,0,1,212.89,104q-14.89,0-23.36-8.32t-8.47-23.94V27.22h7.3V71.16q0,12.86,6.57,19.57t18.54,6.71q12.84,0,20.37-8t7.52-21.6V27.22Z"/><path class="cls-1" d="M290,31.09q7.45-4.45,18.11-4.46v7.16l-1.76-.15q-12.69,0-19.85,8t-7.16,22.12v39.71H272V27.22h7V43.86A26.4,26.4,0,0,1,290,31.09Z"/><path class="cls-1" d="M340.12,100.29q-10.14-3.87-15.84-10l3.36-5.55A39.39,39.39,0,0,0,342.17,94a52,52,0,0,0,19.2,3.58q14.6,0,22-5.55a17.21,17.21,0,0,0,7.45-14.45q0-6.87-3.94-11a26,26,0,0,0-9.79-6.28,134.91,134.91,0,0,0-15.76-4.53,152.54,152.54,0,0,1-18-5.4,28.76,28.76,0,0,1-11.53-8.1q-4.74-5.47-4.74-14.68A24.94,24.94,0,0,1,331,14q3.94-6.2,12-9.85T363.26.5A57.16,57.16,0,0,1,379.91,3,49.16,49.16,0,0,1,394.07,9.7l-2.77,6a47.49,47.49,0,0,0-13.51-6.42,50.89,50.89,0,0,0-14.53-2.19q-14.16,0-21.46,5.69a17.87,17.87,0,0,0-7.3,14.75q0,6.87,3.94,11a26,26,0,0,0,9.79,6.28,146.86,146.86,0,0,0,15.91,4.67,150.17,150.17,0,0,1,18,5.4,29.65,29.65,0,0,1,11.46,8q4.74,5.32,4.74,14.38a24.33,24.33,0,0,1-4,13.58q-4,6.12-12.34,9.78t-20.44,3.65A59.55,59.55,0,0,1,340.12,100.29Z"/><path class="cls-1" d="M431.59,99.05a35.55,35.55,0,0,1-13.72-13.8,40,40,0,0,1-5-19.93,40.26,40.26,0,0,1,5-20.07,35.1,35.1,0,0,1,13.72-13.73,40,40,0,0,1,19.86-4.89,38.45,38.45,0,0,1,16.71,3.58,30.17,30.17,0,0,1,12.19,10.44L475,44.59a26,26,0,0,0-10.14-8.54,31,31,0,0,0-13.36-2.85,31.81,31.81,0,0,0-16,4,28.62,28.62,0,0,0-11.1,11.31,34.37,34.37,0,0,0-4,16.79,34.31,34.31,0,0,0,4,16.79,28.58,28.58,0,0,0,11.1,11.32,31.8,31.8,0,0,0,16,4,31.16,31.16,0,0,0,13.36-2.84A26,26,0,0,0,475,86.06l5.4,3.94a30.17,30.17,0,0,1-12.19,10.44A38.45,38.45,0,0,1,451.45,104,39.56,39.56,0,0,1,431.59,99.05Z"/><path class="cls-1" d="M511.23,99.05a35.77,35.77,0,0,1-13.65-13.8,40,40,0,0,1-5-19.93,40,40,0,0,1,5-19.93A35.82,35.82,0,0,1,511.23,31.6a40.72,40.72,0,0,1,39,0,35.82,35.82,0,0,1,13.65,13.79,40,40,0,0,1,5,19.93,40,40,0,0,1-5,19.93,35.77,35.77,0,0,1-13.65,13.8,40.79,40.79,0,0,1-39,0Zm35.19-5.7a29.32,29.32,0,0,0,11-11.38,34,34,0,0,0,4-16.65,34,34,0,0,0-4-16.64,29.41,29.41,0,0,0-11-11.39,32.16,32.16,0,0,0-31.39,0,29.41,29.41,0,0,0-10.95,11.39,34,34,0,0,0-4,16.64,34,34,0,0,0,4,16.65A29.32,29.32,0,0,0,515,93.35a32.16,32.16,0,0,0,31.39,0Z"/><path class="cls-1" d="M601.75,99.05a35.77,35.77,0,0,1-13.65-13.8,40,40,0,0,1-5-19.93,40,40,0,0,1,5-19.93A35.82,35.82,0,0,1,601.75,31.6a40.72,40.72,0,0,1,39,0,35.82,35.82,0,0,1,13.65,13.79,40.09,40.09,0,0,1,5,19.93,40.06,40.06,0,0,1-5,19.93,35.77,35.77,0,0,1-13.65,13.8,40.79,40.79,0,0,1-39,0Zm35.19-5.7A29.32,29.32,0,0,0,647.89,82a34,34,0,0,0,4-16.65,33.94,33.94,0,0,0-4-16.64,29.41,29.41,0,0,0-10.95-11.39,32.16,32.16,0,0,0-31.39,0A29.41,29.41,0,0,0,594.6,48.68a34,34,0,0,0-4,16.64,34,34,0,0,0,4,16.65,29.32,29.32,0,0,0,10.95,11.38,32.16,32.16,0,0,0,31.39,0Z"/><path class="cls-1" d="M739.5,31.6A35.48,35.48,0,0,1,753,45.32a40.34,40.34,0,0,1,4.89,20A40.76,40.76,0,0,1,753,85.4,34.82,34.82,0,0,1,739.5,99.12,38.32,38.32,0,0,1,720.23,104,35.73,35.73,0,0,1,702,99.27a32.9,32.9,0,0,1-12.7-13.21v45.69H682V27.22h7v18a33.28,33.28,0,0,1,12.77-13.66,35.54,35.54,0,0,1,18.47-4.89A37.87,37.87,0,0,1,739.5,31.6Zm-3.94,61.75a29.17,29.17,0,0,0,11-11.38,34.06,34.06,0,0,0,4-16.65,34.05,34.05,0,0,0-4-16.64,29.26,29.26,0,0,0-11-11.39,30.77,30.77,0,0,0-15.77-4.09,30.35,30.35,0,0,0-15.69,4.09,29.41,29.41,0,0,0-11,11.39,34,34,0,0,0-4,16.64,34,34,0,0,0,4,16.65,29.32,29.32,0,0,0,11,11.38,30.25,30.25,0,0,0,15.69,4.09A30.67,30.67,0,0,0,735.56,93.35Z"/></g></g></svg>