<?xml version="1.0"?>
<svg xmlns="http://www.w3.org/2000/svg" id="Filled" viewBox="0 0 512 512" width="512" height="512"><path d="M312,120H280a32,32,0,0,0,0-64H248L216,24,184,56H152a32,32,0,0,0,0,64H120a32,32,0,0,0,0,64H312a32,32,0,0,0,0-64Z" style="fill:#f7e8d2"/><path d="M392,200H344v40h40a32,32,0,0,1,32,32v32a32,32,0,0,1-32,32H344v40h48a64,64,0,0,0,64-64V264A64,64,0,0,0,392,200Z" style="fill:#d4a811"/><path d="M264,456H168a96,96,0,0,1-96-96V184H360V360A96,96,0,0,1,264,456Z" style="fill:#f7cc38"/><path d="M32,440H480a0,0,0,0,1,0,0v16a32,32,0,0,1-32,32H64a32,32,0,0,1-32-32V440a0,0,0,0,1,0,0Z" style="fill:#d4a811"/><ellipse cx="216" cy="304" rx="56" ry="40" style="fill:#95573a"/><path d="M260.88,327.93C250.66,337.69,234.36,344,216,344c-30.93,0-56-17.91-56-40a29.385,29.385,0,0,1,1.12-8H168c17.88,0,30.58,7.26,44.03,14.95C226,318.93,240.43,327.17,260.88,327.93Z" style="fill:#95573a"/><path d="M270.88,312a35.78,35.78,0,0,1-10,15.93c-20.45-.76-34.88-9-48.85-16.98C198.58,303.26,185.88,296,168,296h-6.88a35.78,35.78,0,0,1,10-15.93c20.45.76,34.88,9,48.85,16.98C233.42,304.74,246.12,312,264,312Z" style="fill:#95573a"/><circle cx="168" cy="88" r="8"/><circle cx="216" cy="112" r="8"/><circle cx="264" cy="88" r="8"/><circle cx="176" cy="136" r="8"/><circle cx="216" cy="72" r="8"/><circle cx="256" cy="136" r="8"/><circle cx="136" cy="152" r="8"/><circle cx="296" cy="152" r="8"/><circle cx="216" cy="152" r="8"/><path d="M480,432H339.059A103.717,103.717,0,0,0,365.2,384H392a72.081,72.081,0,0,0,72-72V264a72.081,72.081,0,0,0-72-72H368v-8a8,8,0,0,0-8-8H343.978A39.978,39.978,0,0,0,312,112h-.019A39.981,39.981,0,0,0,280,48H251.313L221.657,18.343a8,8,0,0,0-11.314,0L180.687,48H152a39.981,39.981,0,0,0-31.981,64H120a39.978,39.978,0,0,0-31.978,64H72a8,8,0,0,0-8,8V360a103.787,103.787,0,0,0,28.941,72H32a8,8,0,0,0-8,8v16a40.045,40.045,0,0,0,40,40H448a40.045,40.045,0,0,0,40-40V440A8,8,0,0,0,480,432ZM392,208a56.063,56.063,0,0,1,56,56v48a56.063,56.063,0,0,1-56,56H367.682c.2-2.649.318-5.316.318-8V344h16a40.045,40.045,0,0,0,40-40V272a40.045,40.045,0,0,0-40-40H368V208ZM368,328V248h16a24.027,24.027,0,0,1,24,24v32a24.027,24.027,0,0,1-24,24ZM96,152a24.028,24.028,0,0,1,24-24h32a8,8,0,0,0,0-16,24,24,0,0,1,0-48h32a8,8,0,0,0,5.657-2.343L216,35.313l26.343,26.344A8,8,0,0,0,248,64h32a24,24,0,0,1,0,48,8,8,0,0,0,0,16h32a24,24,0,0,1,0,48H120A24.028,24.028,0,0,1,96,152ZM80,360V192H352V360a87.876,87.876,0,0,1-37.4,72H117.4A87.876,87.876,0,0,1,80,360Zm392,96a24.028,24.028,0,0,1-24,24H64a24.028,24.028,0,0,1-24-24v-8H472Z"/><path d="M260.248,269.206C248.326,260.689,232.611,256,216,256s-32.326,4.689-44.248,13.206C159.015,278.3,152,290.66,152,304s7.015,25.7,19.752,34.794C183.674,347.311,199.389,352,216,352s32.326-4.689,44.248-13.206C272.985,329.7,280,317.34,280,304S272.985,278.3,260.248,269.206ZM168,304a21.3,21.3,0,0,1,1.573-7.96c17.047.415,29.409,7.449,42.458,14.906,11.229,6.416,22.762,12.986,37.468,15.722C240.774,332.4,228.884,336,216,336,189.981,336,168,321.346,168,304Zm94.427,7.96c-17.047-.415-29.409-7.449-42.458-14.906-11.229-6.416-22.762-12.986-37.468-15.722C191.226,275.6,203.116,272,216,272c26.019,0,48,14.654,48,32A21.3,21.3,0,0,1,262.427,311.96Z"/></svg>
