<svg id="Objects" xmlns="http://www.w3.org/2000/svg" viewBox="0 0 711.6 733.59"><defs><style>.cls-1{fill:#e0d4c7;}.cls-1,.cls-10,.cls-11,.cls-12,.cls-13,.cls-14,.cls-15,.cls-16,.cls-17,.cls-18,.cls-19,.cls-20,.cls-21,.cls-22,.cls-23,.cls-24,.cls-29,.cls-30,.cls-31,.cls-32,.cls-33,.cls-34,.cls-6,.cls-7{fill-rule:evenodd;}.cls-2{fill:#59bebf;}.cls-3{fill:#ffbc5e;}.cls-22,.cls-4{fill:#a69f55;}.cls-31,.cls-5{fill:#d81230;}.cls-6{fill:#fccf94;}.cls-7,.cls-8{fill:#e6bc85;}.cls-9{fill:#d1a66f;}.cls-10{fill:#8a321f;}.cls-11{fill:#662618;}.cls-12{fill:#bf7361;}.cls-13{fill:#ffa341;}.cls-14,.cls-25{fill:#e67b09;}.cls-15{fill:#ffdeba;}.cls-16{fill:#fff5e8;}.cls-17{fill:#ffdeb2;}.cls-18{fill:#e27781;}.cls-19{fill:#d15a66;}.cls-20{fill:#f6bbc1;}.cls-21{fill:#cfc989;}.cls-23{fill:#f0ebb8;}.cls-24{fill:#fff5f6;}.cls-26,.cls-29{fill:#95abaa;}.cls-27,.cls-30{fill:#bbc9c8;}.cls-28{fill:#768786;}.cls-32{fill:#ff7180;}.cls-33{fill:#9c081e;}.cls-34{fill:#db3747;}</style></defs><title>shop</title><path class="cls-1" d="M580.51,765.42V709.18h26.67L596.28,695H580.51v-.88h15.1l-10.9-14.24h-4.2v-4.45h4.62l2.74,3.58.67.87,10.9,14.24.68.88L611,709.18l.67.88h16.94l-41.76-54.54a51.22,51.22,0,0,1-6.35-1.46V602.43h28.06l30.59,40,30.06,9h0c2.27,3-6.38,5.38-19.32,5.38s-25.29-2.41-27.56-5.38a1.46,1.46,0,0,1-.39,2.23l43.19,56.41H691l6.76,8.83H671.91L704.15,761l3.38,4.42Zm0-59.85.46.23,0,0,.22.11h0l1.69.86.05,0,0,0,.19.09.3.15,1.39.71.27.15.25.12h1.72l.07-.12h0l.06-.11h0l.06-.14.18-.39h0l.09-.2.12-.27.07-.14.4-.85h0l.07-.15h0l.07-.16h0l.12-.25.21-.44.06-.14.41-.86h0l.06-.14h0l.09-.18.31-.68.07-.14.09-.2h0l.24-.5h0v0h-.22c1.69-.3,2.55-.73,2.17-1.23s-1.43-.8-3.07-1.11a.27.27,0,0,0,0-.32c-.34-.45-1.82-.85-3.92-1.13l-.06-.07c-.56-.61-2.27-1.11-4.34-1.48Zm-2.34-18.18-.09.19-.07.15-.32.67-.08.18h0l-.07.14h0l-.4.86-.06.14-.21.45-.12.25h0l-.07.16h0l-.07.14h0l-.4.86-.07.14L576,692l-.09.2h0l-.18.39-.06.14h0l-.06.11h0l-.06.13h-1.73l-.24-.13-.28-.14-1.38-.71-.3-.15-.19-.1h0l0,0-1.69-.86h0l-.22-.12-.06,0-.45-.24v-8.93c2.07.38,3.78.88,4.34,1.48l.06.07c2.09.29,3.58.69,3.92,1.14a.27.27,0,0,1,0,.32c1.64.31,2.76.69,3.07,1.11s-.48.92-2.17,1.23h.22l-.24.51Zm2.34-85v51.63c-2.51-.78-4.3-1.68-5-2.64,1.39,1.82-1.29,3.42-6.54,4.39V602.43Zm0,73v4.45H568.94v-4.45Zm0,18.69V695H568.94v-.88Zm0,2.57v8.93l-.48-.25h0l-.49-.25h0l-.26-.13h0l-.27-.14-1.69-.86-.27-.14h0l-.49-.25-.49-.25-.71-.36-.27-.14h0l-.5-.26h0l-1-.53c-2.4-.31-4.08-.76-4.47-1.29s.23-.79,1.41-1.1a1.34,1.34,0,0,1-.45-.32c-.34-.46.6-.88,2.36-1.15-.34-.9,5.27-.9,3-1.9-.36-.16.23-.22.72-.18,1.47.12,3,.31,4.42.57Zm0,12.54v56.24H568.94V709.18Zm-11.57-18.73-.48-.24h0L568,690h0l-.26-.13h0l-.27-.14-1.69-.86-.27-.15h0l-.49-.24-.49-.25-.71-.37-.27-.14h0l-.5-.25h0l-1-.53c-2.39-.32-4.07-.76-4.46-1.29s.23-.8,1.41-1.11a1.33,1.33,0,0,1-.45-.31c-.34-.47.6-.88,2.36-1.16-.34-.89,5.27-.89,3-1.9-.37-.16.22-.21.71-.17,1.47.12,3,.31,4.42.56v8.93Zm0-88v53.38a71.94,71.94,0,0,1-12.26,1V602.43Zm0,73v4.45H556.68v-4.45Zm0,18.69V695H556.68v-.88Zm0,15.11v56.24H556.68V709.18Zm-12.26-3.61v-8.93c2.07.37,3.78.87,4.34,1.48l.06.07c2.09.28,3.58.68,3.92,1.13a.27.27,0,0,1,0,.32c1.64.31,2.76.7,3.07,1.11s-.48.93-2.17,1.23h.22v0h0l-.24.5h0l-.09.2-.07.14-.32.68-.08.18h0l-.07.14h0l-.4.86-.06.14-.21.44-.12.25h0l-.07.16h0l-.07.15h0l-.4.85-.07.14-.12.27-.1.2h0l-.18.39-.06.14h0l-.06.11h0l-.07.12h-1.72l-.25-.12-.27-.15-1.39-.71-.3-.15-.19-.09,0,0-.06,0-1.68-.86h0l-.22-.11-.05,0Zm0-103.14V656.8h-.52a105.25,105.25,0,0,1-11-.58V602.43Zm0,73v4.45H545.11v-4.45Zm0,18.69V695H545.11v-.88Zm0,2.57v8.93l-.48-.25h0l-.49-.25h0l-.26-.13h0l-.27-.14-1.69-.86-.28-.14h0l-.48-.25-.49-.25-.71-.36-.27-.14h0l-.5-.26h0l-1-.53c-2.39-.31-4.07-.76-4.46-1.29s.23-.79,1.41-1.1a1.34,1.34,0,0,1-.45-.32c-.34-.46.6-.88,2.36-1.15-.34-.9,5.26-.9,3-1.9-.36-.16.23-.22.72-.18,1.47.12,3,.31,4.42.57Zm0,12.54v56.24H545.11V709.18Zm-11.57-18.73v-8.93c2.07.38,3.78.88,4.34,1.48l.06.07c2.09.29,3.58.69,3.91,1.14a.26.26,0,0,1,0,.32c1.64.31,2.76.69,3.07,1.11s-.48.92-2.17,1.23h.21l-.23.51h0l-.09.19-.07.15-.32.67-.08.18h0l-.06.14h0l-.4.86-.06.14-.21.45-.12.25h0l-.08.16h0l-.06.14h0l-.4.86-.07.14-.12.27-.09.2h0l-.18.39-.07.14h0l-.05.11h0l-.06.13H550l-.24-.13-.27-.14L548.1,692l-.3-.15-.19-.1h0l-.06,0-1.68-.86h0l-.22-.12-.06,0Zm0-88v53.79A62.27,62.27,0,0,1,533.45,654V602.43Zm0,73v4.45H533.45v-4.45Zm0,6.14v8.93l-.48-.24h0l-.49-.25h0l-.26-.13h0l-.27-.14-1.69-.86-.27-.15h0l-.49-.24-.49-.25-.71-.37-.27-.14h0l-.5-.25h0l-1-.53c-2.39-.32-4.07-.76-4.46-1.29s.23-.8,1.41-1.11a1.33,1.33,0,0,1-.45-.31c-.34-.47.6-.88,2.36-1.16-.34-.89,5.27-.89,3-1.9-.36-.16.23-.21.72-.17,1.47.12,3,.31,4.42.56Zm0,12.55V695H533.45v-.88Zm0,15.11v56.24H533.45V709.18Zm-11.66-3.61v-8.93c2.07.37,3.78.87,4.35,1.48a.18.18,0,0,1,.05.07c2.1.28,3.58.68,3.92,1.13a.27.27,0,0,1,0,.32c1.65.31,2.77.7,3.08,1.11s-.48.93-2.18,1.23h.23v0h0l-.24.5h0l-.09.2-.06.14-.32.68-.09.18h0l-.06.14h0l-.4.86-.07.14-.21.44-.11.25h0l-.08.16h0l-.07.15h0l-.4.85-.06.14-.13.27-.09.2h0l-.19.39-.06.14h0l-.05.11h0l-.06.12h-1.73l-.25-.12-.27-.15-1.39-.71-.3-.15-.19-.09,0,0,0,0-1.69-.86h0l-.22-.11-.05,0Zm0-103.14V654c-2.41-.76-4.13-1.64-4.84-2.58,1.4,1.84-1.36,3.46-6.73,4.43V602.43Zm0,73v4.45H521.88v-4.45Zm0,18.69V695H521.88v-.88Zm0,2.57v8.93l-.48-.25h0l-.48-.25h0l-.26-.13h0l-.27-.14-1.68-.86-.28-.14h0l-.49-.25-.48-.25-.72-.36-.27-.14h0l-.49-.26h0l-1-.53c-2.39-.31-4.07-.76-4.47-1.29s.24-.79,1.41-1.1a1.45,1.45,0,0,1-.45-.32c-.34-.46.6-.88,2.37-1.15-.35-.9,5.26-.9,3-1.9-.36-.16.22-.22.72-.18,1.46.12,3,.31,4.41.57Zm0,12.54v56.24H521.88V707.69l1.14,1.49Zm-11.57-18.73v-8.93c2.07.38,3.79.88,4.35,1.48l0,.07c2.1.29,3.58.69,3.92,1.14a.27.27,0,0,1,0,.32c1.64.31,2.77.69,3.08,1.11s-.49.92-2.18,1.23h.22l-.24.51h0l-.09.19-.07.15-.31.67-.09.18h0l-.06.14h0l-.4.86-.07.14-.21.45-.11.25h0l-.07.16h0l-.07.14h0l-.4.86-.06.14L529,692l-.09.2h0l-.18.39-.07.14h0l0,.11h0l-.06.13h-1.73l-.25-.13-.27-.14-1.39-.71-.3-.15-.19-.1h0l-.05,0-1.69-.86h0l-.22-.12,0,0Zm0-88v53.42a73.19,73.19,0,0,1-12.59.95c-13,0-25.28-2.41-27.56-5.38,2.28,3-6.37,5.38-19.31,5.38s-25.29-2.41-27.56-5.38c2.27,3-6.37,5.38-19.32,5.38s-25.28-2.41-27.55-5.38c2.27,3-6.38,5.38-19.32,5.38s-25.28-2.41-27.55-5.38c2.27,3-6.38,5.38-19.32,5.38s-25.28-2.41-27.56-5.38c2.28,3-6.37,5.38-19.31,5.38s-25.28-2.41-27.56-5.38c2.28,3-6.37,5.38-19.32,5.38s-25.28-2.41-27.55-5.38c2.27,3-6.38,5.38-19.32,5.38s-25.28-2.41-27.56-5.38c1.26,1.64-.81,3.11-5.11,4.1l41.76,54.54h13.14L194.94,699h35.87l-5-6.47H204.46l-3.65-4.77h57.54l3.65,4.77H240.61l4.95,6.47h35.87l8.47,11.06h230l-.68-.88L508.3,695l-.68-.88-10.9-14.24-.67-.87-2.73-3.58h28.56v4.45H500.55l10.9,14.24h10.43V695h-9.75l9.75,12.74v57.73H196.12L192.74,761h0L160.5,718.89H134.69l-6.76-8.83h25.81l-43.19-56.41a8.67,8.67,0,0,1-3.8-2.23c2.28,3-6.37,5.38-19.32,5.38s-25.28-2.41-27.55-5.38h0l16.25-9L49.72,607.9a4.52,4.52,0,0,1-2-2.56l-2.23-2.91h3.56l.1-.08c-.38-.17-.72-.34-1-.51-3.08-1.66-3.9-3.34-2.77-5,.77-1.1,2.47-2.15,5-3.13-1.32-2.27,2.55-3.81,6.28-5.3,1.67-.66,3.26-1.3,1.56-1.76-3.23-.89-4.72-1.8-4.92-2.65-.15-.62.37-1.17,1.41-1.65a15.43,15.43,0,0,1,3.84-1,62.27,62.27,0,0,1,11.4-.65,317.6,317.6,0,0,1,37.31,3.17c9,1.37,17.12,3.18,22.9,5.45,4.7.5,9.08,1.13,13,1.87,6,1.15,10.81,2.55,13.8,4.16.31.17.6.34.88.52,3.32.52,6.41,1.11,9.2,1.77a47.09,47.09,0,0,1,11.15,3.77,13.22,13.22,0,0,1,1.65,1Zm0,79.09c-1.39-.25-3-.44-4.41-.56-.5,0-1.08,0-.72.17,2.3,1-3.31,1-3,1.9-1.77.28-2.71.69-2.37,1.16a1.45,1.45,0,0,0,.45.31c-1.18.31-1.72.69-1.41,1.11s2.07,1,4.47,1.29l1,.53h0l.49.25h0l.28.14.71.37.48.25.49.24h0l.28.15,1.68.86.27.14h0l.27.13h0l.49.25h0l.48.24Z" transform="translate(-44.9 -31.83)"/><rect class="cls-2" x="151.22" y="548.85" width="73.06" height="167.21"/><rect class="cls-3" x="224.28" y="548.85" width="73.06" height="167.21"/><rect class="cls-2" x="297.34" y="548.85" width="73.06" height="167.21"/><rect class="cls-3" x="370.39" y="548.85" width="73.06" height="167.21"/><rect class="cls-2" x="443.45" y="548.85" width="73.06" height="167.21"/><rect class="cls-3" x="516.51" y="548.85" width="73.06" height="167.21"/><rect class="cls-2" x="589.57" y="548.85" width="73.06" height="167.21"/><rect class="cls-2" x="626.1" y="277.45" width="36.53" height="271.4"/><rect class="cls-2" x="151.22" y="277.45" width="36.53" height="271.4"/><rect class="cls-4" x="125.41" y="513.78" width="563.03" height="35.07"/><rect class="cls-5" x="125.41" y="86.4" width="563.03" height="158.68"/><path class="cls-5" d="M287.6,92.16a46.35,46.35,0,0,1,7.85,7,37.54,37.54,0,0,1,8.26,15,34.42,34.42,0,0,1-.38,19.74,42.29,42.29,0,0,1-6.39,12.4l-3.43,116.35c-.14,5.87-4.64,10.71-10.61,12h0l-8,1.81c-6.38,1.43-12.81-1.38-15.71-6.47l-61.49-98.84a51.5,51.5,0,0,1-14.93-9,37,37,0,0,1-11.59-18.08,35.45,35.45,0,0,1-.47-16.78,40.35,40.35,0,0,1,3.31-9.5c-.25-.69-.46-1.36-.64-2a31.71,31.71,0,0,1,1-19.63,41.94,41.94,0,0,1,7.39-12.43c.42-9,5.47-15.15,10.33-21.06,2.19-2.65,4.26-5.15,2.92-7a14.41,14.41,0,0,1-2.9-10.54,14,14,0,0,1,2.68-6.55,16,16,0,0,1,4.65-4.17,19.53,19.53,0,0,1,11.89-2.57,78.64,78.64,0,0,1,34.88,12.58c8,5.45,14.69,12.63,18.72,21.65a47.12,47.12,0,0,1,11.55,7.42,34.1,34.1,0,0,1,10.61,16.53C287.3,90.77,287.46,91.45,287.6,92.16Z" transform="translate(-44.9 -31.83)"/><polygon class="cls-6" points="161.98 128.15 238.19 110.83 234.67 230.36 226.69 232.18 161.98 128.15"/><path class="cls-7" d="M206.89,160l76.2-17.33-.3,10.24c-8.51,6.4-20.47,11.69-34.34,14.84-12.7,2.89-25,3.53-35.43,2.11Z" transform="translate(-44.9 -31.83)"/><path class="cls-8" d="M269.68,260.92v-2.81l10.49-15.92-.15,4.88-9.75,14.8-.59-.95Zm0-31.32V225l11.51-17.47-.15,4.87L269.68,229.6Zm0-33.17v-4.65l12.53-19-.14,4.88-12.39,18.79Zm0-33.17v-4.65l10-15.18,3.41-.78v.27Zm0-4.65v4.65l-17.12,26v-4.66l17.12-26Zm0,33.17v4.65l-17.12,26v-4.66l17.12-26Zm0,33.17v4.65l-10,15.2-1.49-2.39L269.68,225Zm0,33.16v2.81l-.9-1.45.9-1.36ZM252.56,156.06V151.4l1.4-2.12,3.61-.83Zm0-4.66v4.66l-5.31,8.05v-4.65l5.31-8.06Zm0,33.17v4.66l-5.31,8.05v-4.66l5.31-8.05Zm0,33.17v4.66L249,227.74l-1.49-2.4Zm-23.47-62.81,2.77-.63-2.77,4.2v-3.57Zm18.16,4.53v4.65l-18.16,27.56V187l18.16-27.55Zm0,33.16v4.66l-8.83,13.4-1.49-2.4Zm-19-37.5.84-.19v3.57l-11.9,18.05-1.49-2.4,12.55-19Zm.84,31.89v4.66l-1.28,1.94-1.49-2.4Z" transform="translate(-44.9 -31.83)"/><path class="cls-8" d="M271.3,190.31l10.23,5.61-.08,2.75-10.15-5.56v-2.8Zm0,62.58v-2.8l8.5,4.65-.08,2.75-8.42-4.6Zm0-19.93v-2.8l9.07,5-.08,2.76-9-4.93Zm0-19.92v-2.8l9.65,5.29-.08,2.75L271.3,213Zm0-39.85v-2.8l10.8,5.92-.08,2.75-10.72-5.87Zm0-19.93v-2.79l11.38,6.23-.08,2.75Zm-12.86,30,12.86,7v2.8l-12.86-7v-2.8Zm12.86-32.8v2.79l-10.24-5.6,3.61-.82,6.63,3.63Zm0,19.92v2.8l-12.86-7v-2.8l12.86,7Zm0,39.85V213l-12.86-7v-2.8l12.86,7Zm0,19.92V233l-12.86-7v-2.8l12.86,7Zm0,19.93v2.8l-10-5.5-2.64-4.24Zm-61.67-90.74,3.61-.82,45.2,24.74v2.8l-48.81-26.72Zm48.81,4L239,152.69l-3.62.82,23.1,12.64v-2.8Zm0,39.85L221,182.73l2.64,4.24,34.76,19v-2.8Zm0,19.92v2.8l-16-8.74-2.64-4.24Z" transform="translate(-44.9 -31.83)"/><path class="cls-9" d="M228.25,155.12l3.61-.82-10.69,16.22q-1.5-.06-3-.15l10.05-15.25Zm44,4.24q-2.16,1.09-4.45,2.1l11.88-18,3.41-.78v.27l-10.84,16.44Zm-28,9.24c-1.16.22-2.31.43-3.46.61L254,149.28l3.61-.83Z" transform="translate(-44.9 -31.83)"/><path class="cls-9" d="M209.63,159.35l3.61-.82,21,11.53c-1.51.15-3,.26-4.47.35l-20.19-11.06Zm70.07-4.28c-.77.5-1.56,1-2.38,1.49l-16.26-8.9,3.61-.82,15,8.23Zm-19.4,9.3c-1.05.36-2.11.71-3.2,1l-21.76-11.91,3.62-.82Z" transform="translate(-44.9 -31.83)"/><polygon class="cls-7" points="173.83 125.46 234.75 227.85 234.67 230.36 226.69 232.18 161.98 128.15 173.83 125.46"/><path class="cls-9" d="M224,166.18l-6.84,10.37-.57-.93-.92-1.47,6.87-10.42,1.46,2.45Zm8.91,15,1.46,2.45-6.59,10-.25-.4-1.24-2,6.62-10.05Zm10.37,17.44,1.46,2.45-6.35,9.63-1.19-1.92-.3-.48,6.38-9.68ZM253.69,216l1.45,2.45-6.1,9.26-1.21-1.94-.28-.46,6.14-9.31Zm10.37,17.44,1.46,2.44-5.87,8.89-1.18-1.89-.31-.5,5.9-8.94Zm10.37,17.43,1.46,2.45-5.62,8.52-1.49-2.4Z" transform="translate(-44.9 -31.83)"/><path class="cls-9" d="M213.24,158.53l9.25,5.07,2.47,4.15-15.33-8.4,3.61-.82Zm26.83,34.62,2.47,4.15L223.68,187l-1.33-2.13L221,182.73l19,10.42Zm17.58,29.54,2.47,4.15-17.65-9.66-2.64-4.24,17.82,9.75Zm17.58,29.55,2.46,4.15-16.42-9-2.65-4.24Z" transform="translate(-44.9 -31.83)"/><path class="cls-10" d="M274.23,99.1c8.06,4.21,13.84,10.37,15.93,18,5.19,18.87-14.42,37.5-43.53,44.08s-56.68-1.38-61.87-20.25c-2.09-7.61-.17-15.51,4.76-22.66A20,20,0,0,1,187,112.6c-2.33-8.45,1.36-17.33,9.06-24.54-3-16.73,22.87-22.72,10.67-39.5-1.92-2.65.68-4.4,3-4.15,17.24,1.9,37.7,11.45,43.62,29.78.15.43.26.86.38,1.28,10.1,3.17,17.59,9.33,19.85,17.55A19.35,19.35,0,0,1,274.23,99.1Z" transform="translate(-44.9 -31.83)"/><path class="cls-11" d="M287.2,132.19c-8.23,17.07-33.27,27.62-56.47,28.74v-8.72c20.37-1.79,42.66-11.2,52.65-23.25,2.54-3.06,6.63-2.6,3.82,3.23Zm-56.47-3.69c16.63-2.44,33.43-10.37,39.74-21.42,2.6-4.54-.58-6.35-2.75-4-7.42,8.15-22.37,15-37,17.46v7.93Zm0-30.81V91.22c7-2.13,13.77-6.17,16.91-10.39,3-4,3.47-.44,2.52,1.83C246.94,90.3,239.2,95.37,230.73,97.69Zm0,63.24c-20.39,1-39.35-5.31-44.19-20.88-2.88-9.27,1.44-15.27,3.86-6.46,4.23,15.4,21.45,20.28,40.33,18.62v8.72Zm0-69.71v6.47c-13.11,3.6-27.94.61-30.31-9.66-2.82-12.28,17.06-23.09,13.5-35.35-.68-2.33.39-4.13,2.41-.34,6.86,12.82-10.64,24.77-7.43,33.59,2.78,7.64,12.57,8.11,21.83,5.29Zm0,29.35c-17,2.83-33.48-.28-37.33-14.28-1.43-5.22-3.28-1.4-3.37,1.27a22.78,22.78,0,0,0,.6,6c3.76,13.7,21.83,17.63,40.1,14.94Z" transform="translate(-44.9 -31.83)"/><path class="cls-12" d="M280.43,126.64c-18.4,24.4-83.77,33.1-88.62,1.4-.67-4.4-.11-8.26,3.43-1.45,11.18,21.53,68.21,9.33,82.27-4.16,2.46-2.36,6.23-.18,2.92,4.21Zm-15.3-25c2.67-3.54-.17-5-2.36-3.4-11.87,9-58,18.24-66.37,3.36-3-5.4-3.3-2.38-2.76,1.17,3.91,25.57,56.65,18.55,71.49-1.13Zm-54.2-17.78c-1-8.07,13.43-21.39,6.44-32.18-1-1.61,0-4.82,2.29-2.36C228,58.21,222.85,69,224.5,75.92c2.59,11,15.24,6.51,22-.23,2.53-2.53,3.06.22,2.13,1.61C239.88,90.23,212.52,96.3,210.93,83.89Z" transform="translate(-44.9 -31.83)"/><polygon class="cls-6" points="530.08 421.61 546.59 421.68 539.08 445.87 537.35 445.86 530.08 421.61"/><path class="cls-7" d="M575,453.44l16.51.07-.64,2.07A20,20,0,0,1,583,457a21.15,21.15,0,0,1-7.34-1.24Z" transform="translate(-44.9 -31.83)"/><path class="cls-8" d="M582.76,476.6v-.71l2.48-2.24-.31,1-2.17,2Zm0-5.06v-.71l4.66-4.21-.31,1-4.35,3.93Zm0-5.05v-.71l6.84-6.18-.31,1-6.53,5.9Zm0-5.05,8.72-7.88v-.05h-.74l-8,7.22v.71Zm0-5.06v-.71l2.42-2.19H586Zm-3.15-2.92h.78l-1.61,1.46v-.71l.83-.75Zm3.15,2.21v.71l-4,3.59v-.71l4-3.59Zm0,5.06v.71l-4,3.59v-.71l4-3.59Zm0,5v.71l-3,2.74-.17-.55,3.21-2.9Zm0,5.05v.71l-1.85,1.67-.17-.56,2-1.82Zm0,5.06v.71l-.66.59-.16-.56Zm-4-21-2.64,2.38-.16-.56,2.8-2.53v.71Zm0,4.34V460l-1.45,1.31-.16-.56,1.61-1.46Zm0,5.06V465l-.25.23-.17-.56Z" transform="translate(-44.9 -31.83)"/><path class="cls-8" d="M587.43,463.63l.71.65-.17.56-.54-.5v-.71Zm0-4.39v-.71l2,1.79-.18.56-1.77-1.64Zm0-5.1v-.65h.07l3.11,2.86-.17.56Zm-2.78,6.93,2.78,2.56v.71l-2.78-2.56v-.71Zm2.78-7.58v.65l-.71-.65Zm0,5v.71l-2.78-2.56V456l2.78,2.56ZM584.65,472v-.71l1,1-.17.55-.86-.79Zm0-5.1v-.71l2.26,2.08-.17.56Zm-9.07-13.44h.78l8.29,7.63v.71l-9.07-8.34Zm9.07,2.53-2.72-2.5h-.78l3.5,3.21V456Zm0,10.2-8.08-7.43.3,1,7.78,7.15v-.71Zm0,5.1V472L579,466.77l-.29-1,6,5.49Zm-.2,4.92-.17.55-3.19-2.93-.3-1Z" transform="translate(-44.9 -31.83)"/><path class="cls-9" d="M579.61,453.46h.78l-3.1,2.8-.59-.17,2.91-2.63Zm8.72,2.94q-.5.12-1,.21l3.44-3.1h.74v.05l-3.15,2.84Zm-6.22.56-.74,0,3.81-3.44H586Z" transform="translate(-44.9 -31.83)"/><path class="cls-9" d="M575.58,453.44h.78l3.63,3.35-.93-.14-3.48-3.21Zm14.51,2.44-.57.19-2.8-2.58h.78l2.59,2.39Zm-4.47,1-.71.06-3.76-3.45h.78Z" transform="translate(-44.9 -31.83)"/><polygon class="cls-7" points="532.65 421.62 539.24 445.36 539.08 445.87 537.35 445.86 530.08 421.61 532.65 421.62"/><path class="cls-9" d="M578.13,455.51l-2,1.79-.06-.21-.1-.35,2-1.79.17.56Zm1,3.48.15.56-1.91,1.73,0-.09-.14-.47,1.92-1.73Zm1.12,4,.16.56-1.84,1.67-.14-.45,0-.11,1.85-1.67Zm1.12,4,.16.56-1.77,1.6-.14-.45,0-.1,1.78-1.61Zm1.12,4,.16.56-1.7,1.54-.13-.44,0-.12,1.71-1.54Zm1.12,4,.16.56-1.63,1.48-.16-.56Z" transform="translate(-44.9 -31.83)"/><path class="cls-9" d="M576.36,453.44l1.6,1.48.26,1-2.64-2.44Zm3.5,8.32.27,1-3.26-3-.15-.5-.15-.49,3.29,3Zm1.9,6.85.27,1-3-2.8-.29-1,3.07,2.83Zm1.9,6.85.27,1-2.84-2.61-.3-1Z" transform="translate(-44.9 -31.83)"/><path class="cls-13" d="M592.16,444.22a5.89,5.89,0,0,1,2.22,4.41c0,4.09-5.06,7-11.37,6.93s-11.46-3-11.45-7.05a5.9,5.9,0,0,1,2.26-4.39,4.16,4.16,0,0,1-.2-1.27c0-1.83,1.26-3.47,3.24-4.57.34-3.55,5.95-3.55,4.41-7.55-.24-.63.39-.86.86-.7,3.4,1.2,7,4.11,7.19,8.13a2.62,2.62,0,0,1,0,.28c1.87,1.12,3,2.73,3,4.51A3.93,3.93,0,0,1,592.16,444.22Z" transform="translate(-44.9 -31.83)"/><path class="cls-14" d="M592.92,451.57c-2.1,2.45-6.13,3.57-10.1,3.49v-1.89c3.59,0,7.32-.84,9.51-2.44.69-.5,1.5-.22.59.84Zm-10.1-3.36v-1.64a14.76,14.76,0,0,0,7.79-1.84c.58-.38,1.12.13.33.94-1.7,1.73-4.94,2.57-8.12,2.54Zm0-6.33v-1.31a8.12,8.12,0,0,0,5-1.33c.84-.67.73.08.41.49a6.54,6.54,0,0,1-5.37,2.15Zm0-8.09v-2.32a1,1,0,0,1,.21.49A2.83,2.83,0,0,1,582.82,433.79Zm0,21.27c-5.42-.11-10.72-2.45-10.85-6.64-.06-2,1.16-3,1.15-1.13,0,4,4.72,5.83,9.7,5.88v1.89Zm0-23.59v2.32c-.84,1.86-3.34,3.16-3.22,4.66s1.54,2.05,3.22,2.12v1.31c-2.67-.06-5.16-1.34-5.07-3.4.13-2.64,4.79-3.9,4.76-6.56,0-.35.15-.61.31-.45Zm0,15.1c-3.91-.07-7.54-1.46-7.53-4.7,0-1.13-.59-.44-.76.1a4.82,4.82,0,0,0-.22,1.25c0,3.27,4.19,4.94,8.51,5Z" transform="translate(-44.9 -31.83)"/><path class="cls-15" d="M591.86,450.12c-2.05,1.64-5.5,2.41-8.84,2.33v-2.13c3.37.23,6.83-.25,8.48-1.2.64-.36,1.28.26.36,1ZM583,446.19v-2.07a17.2,17.2,0,0,0,6.86-.61c.53-.23,1,.21.28.8-1.66,1.33-4.44,1.95-7.14,1.88Zm0-6V434a2.66,2.66,0,0,0,.25-2.1c-.12-.38.28-1,.6-.37,1.19,2.2-.46,4.14-.52,5.64-.1,2.35,2.73,2,4.49,1,.66-.4.61.19.34.43A7.82,7.82,0,0,1,583,440.16Zm0,12.29c-5-.14-9.78-2.22-9.29-6.23.11-.93.44-1.68.78-.13.57,2.67,4.48,4,8.51,4.23v2.13ZM583,434v6.18c-1.72-.07-3.08-.74-2.89-2s2.08-2.56,2.89-4.15Zm0,10.14c-3.24-.26-6.39-1.2-6.86-3.06-.31-1.24-.53-.64-.62.11-.4,3.23,3.45,4.91,7.48,5Z" transform="translate(-44.9 -31.83)"/><polygon class="cls-6" points="553.61 421.61 570.12 421.68 562.61 445.87 560.88 445.86 553.61 421.61"/><path class="cls-7" d="M598.51,453.44l16.51.07-.64,2.07a20,20,0,0,1-7.84,1.4,21.15,21.15,0,0,1-7.34-1.24Z" transform="translate(-44.9 -31.83)"/><path class="cls-8" d="M606.29,476.6v-.71l2.48-2.24-.31,1-2.17,2Zm0-5.06v-.71l4.66-4.21-.31,1-4.35,3.93Zm0-5.05v-.71l6.84-6.18-.31,1-6.53,5.9Zm0-5.06,8.71-7.87,0-.05h-.74l-8,7.21v.71Zm0-5.05v-.71l2.42-2.19h.78Zm-3.15-2.92h.78l-1.61,1.46v-.71l.83-.75Zm3.15,2.21v.71l-4,3.59v-.71l4-3.59Zm0,5.05v.71l-4,3.6v-.71l4-3.6Zm0,5.06v.71l-3,2.74-.17-.55,3.21-2.9Zm0,5.05v.71l-1.85,1.67-.17-.56,2-1.82Zm0,5.06v.71l-.66.59-.17-.56Zm-4-21-2.64,2.38-.17-.56,2.81-2.53v.71Zm0,4.34V460l-1.45,1.31-.16-.56,1.61-1.46Zm0,5.06V465l-.26.23-.16-.56Z" transform="translate(-44.9 -31.83)"/><path class="cls-8" d="M611,463.63l.71.65-.17.56-.54-.5v-.71Zm0-4.39v-.71l1.95,1.79-.18.56L611,459.24Zm0-5.1v-.65H611l3.11,2.86-.17.56Zm-2.79,6.93,2.79,2.56v.71l-2.79-2.56v-.71Zm2.79-7.58v.65l-.71-.65Zm0,5v.71l-2.79-2.56V456l2.79,2.56ZM608.17,472v-.71l1,1-.17.55-.87-.79Zm0-5.1v-.71l2.27,2.08-.17.56Zm-9.06-13.44h.78l8.28,7.63v.71l-9.06-8.34Zm9.06,2.53-2.71-2.5h-.78l3.49,3.21V456Zm0,10.2-8.07-7.43.3,1,7.77,7.15v-.71Zm0,5.1V472l-5.66-5.21-.3-1,6,5.49Zm-.19,4.92-.18.55-3.18-2.93-.29-1Z" transform="translate(-44.9 -31.83)"/><path class="cls-9" d="M603.14,453.46h.78l-3.1,2.8-.59-.17,2.91-2.63Zm8.72,2.94q-.5.12-1,.21l3.44-3.1H615l0,.05-3.14,2.84Zm-6.22.56-.74,0,3.81-3.44h.78Z" transform="translate(-44.9 -31.83)"/><path class="cls-9" d="M599.11,453.44h.78l3.63,3.35-.93-.14-3.48-3.21Zm14.51,2.44-.57.19-2.8-2.58H611l2.59,2.39Zm-4.48,1-.71.06-3.75-3.45h.78Z" transform="translate(-44.9 -31.83)"/><polygon class="cls-7" points="556.17 421.62 562.76 445.36 562.61 445.87 560.88 445.86 553.61 421.61 556.17 421.62"/><path class="cls-9" d="M601.65,455.51l-2,1.79-.07-.21-.1-.35,2-1.79.16.56Zm1,3.48.16.56-1.92,1.73,0-.09-.14-.47,1.92-1.73Zm1.12,4,.15.56-1.84,1.67-.13-.45,0-.11,1.85-1.67Zm1.12,4,.16.56-1.77,1.6-.14-.45,0-.1,1.78-1.61Zm1.12,4,.16.56-1.7,1.54-.13-.44,0-.12,1.71-1.54Zm1.12,4,.16.56-1.63,1.48-.17-.56Z" transform="translate(-44.9 -31.83)"/><path class="cls-9" d="M599.89,453.44l1.6,1.48.26,1-2.64-2.44Zm3.5,8.32.26,1-3.25-3-.15-.5-.15-.49,3.29,3Zm1.9,6.85.27,1-3-2.8-.3-1,3.08,2.83Zm1.9,6.85.27,1-2.84-2.61-.29-1Z" transform="translate(-44.9 -31.83)"/><path class="cls-16" d="M615.69,444.22a5.89,5.89,0,0,1,2.22,4.41c0,4.09-5.07,7-11.37,6.93s-11.47-3-11.45-7.05a5.83,5.83,0,0,1,2.26-4.39,3.89,3.89,0,0,1-.21-1.27c0-1.83,1.27-3.47,3.25-4.57.34-3.55,5.94-3.55,4.41-7.55-.24-.63.4-.86.86-.7,3.4,1.2,7,4.11,7.19,8.13v.28c1.88,1.12,3.06,2.73,3,4.51A3.93,3.93,0,0,1,615.69,444.22Z" transform="translate(-44.9 -31.83)"/><path class="cls-17" d="M616.45,451.57c-2.1,2.45-6.13,3.57-10.1,3.49v-1.89c3.59,0,7.31-.84,9.51-2.44.69-.5,1.5-.22.59.84Zm-10.1-3.36v-1.64a14.76,14.76,0,0,0,7.79-1.84c.57-.38,1.12.13.33.94-1.7,1.73-4.94,2.57-8.12,2.54Zm0-6.33v-1.31a8.12,8.12,0,0,0,5-1.33c.84-.67.74.08.41.49a6.55,6.55,0,0,1-5.37,2.15Zm0-8.09v-2.32a1.14,1.14,0,0,1,.21.49A2.83,2.83,0,0,1,606.35,433.79Zm0,21.27c-5.42-.11-10.72-2.44-10.85-6.64-.06-2,1.16-3,1.15-1.13,0,4,4.71,5.83,9.7,5.88v1.89Zm0-23.59v2.32c-.84,1.86-3.34,3.16-3.22,4.66s1.54,2.05,3.22,2.12v1.31c-2.67-.06-5.16-1.34-5.06-3.4.12-2.64,4.78-3.9,4.75-6.56,0-.36.15-.61.31-.45Zm0,15.1c-3.91-.07-7.55-1.46-7.53-4.7,0-1.13-.59-.44-.76.1a4.82,4.82,0,0,0-.22,1.25c0,3.27,4.18,4.94,8.51,5Z" transform="translate(-44.9 -31.83)"/><path class="cls-17" d="M615.39,450.12c-2.06,1.64-5.5,2.41-8.84,2.33v-2.13c3.38.23,6.83-.25,8.48-1.2.64-.36,1.28.26.36,1Zm-8.84-3.93v-2.07a17.12,17.12,0,0,0,6.85-.61c.54-.23,1,.21.29.8-1.66,1.33-4.44,1.95-7.14,1.88Zm0-6V434a2.66,2.66,0,0,0,.25-2.1c-.12-.38.27-1,.6-.37,1.19,2.2-.46,4.14-.52,5.64-.1,2.35,2.73,2,4.49,1,.66-.4.61.19.34.43A7.82,7.82,0,0,1,606.55,440.16Zm0,12.29c-5-.14-9.78-2.22-9.29-6.23.11-.93.44-1.68.78-.13.57,2.67,4.48,4,8.51,4.23v2.13Zm0-18.47v6.18c-1.72-.07-3.08-.74-2.89-2s2.08-2.56,2.89-4.15Zm0,10.14c-3.24-.26-6.39-1.2-6.86-3.06-.31-1.24-.53-.64-.62.11-.4,3.23,3.45,4.91,7.48,5Z" transform="translate(-44.9 -31.83)"/><polygon class="cls-6" points="577.14 421.61 593.64 421.68 586.14 445.87 584.41 445.86 577.14 421.61"/><path class="cls-7" d="M622,453.44l16.51.07-.64,2.07a20,20,0,0,1-7.84,1.4,21.15,21.15,0,0,1-7.34-1.24Z" transform="translate(-44.9 -31.83)"/><path class="cls-8" d="M629.82,476.6v-.71l2.47-2.24-.3,1-2.17,2Zm0-5.06v-.71l4.66-4.21-.31,1-4.35,3.93Zm0-5.05v-.71l6.84-6.18-.31,1-6.53,5.9Zm0-5.06,8.71-7.87,0-.05h-.74l-8,7.22v.7Zm0-5.05v-.71l2.42-2.19H633Zm-3.15-2.92h.78l-1.61,1.46v-.71l.83-.75Zm3.15,2.21v.71l-4,3.59v-.71l4-3.59Zm0,5.06v.7l-4,3.6v-.71l4-3.59Zm0,5v.71l-3,2.74-.17-.55,3.21-2.9Zm0,5.05v.71L628,473.21l-.17-.56,2-1.82Zm0,5.06v.71l-.66.59-.16-.56Zm-4-21-2.64,2.38-.17-.56,2.81-2.53v.71Zm0,4.34V460l-1.45,1.31-.17-.56,1.62-1.46Zm0,5.06V465l-.26.23-.16-.56Z" transform="translate(-44.9 -31.83)"/><path class="cls-8" d="M634.49,463.63l.71.65-.17.56-.54-.5v-.71Zm0-4.39v-.71l2,1.79-.18.56-1.77-1.64Zm0-5.1v-.65h.07l3.11,2.86-.18.56Zm-2.79,6.93,2.79,2.56v.71l-2.79-2.56v-.71Zm2.79-7.58v.65l-.71-.65Zm0,5v.71l-2.79-2.56V456l2.79,2.56ZM631.7,472v-.71l1,1-.17.55-.87-.79Zm0-5.1v-.71l2.27,2.08-.17.56Zm-9.06-13.44h.77l8.29,7.63v.71l-9.06-8.34ZM631.7,456l-2.71-2.5h-.78l3.49,3.21V456Zm0,10.2-8.07-7.43.3,1,7.77,7.15v-.71Zm0,5.1V472L626,466.77l-.3-1,6,5.49Zm-.19,4.92-.17.55-3.19-2.93-.3-1Z" transform="translate(-44.9 -31.83)"/><path class="cls-9" d="M626.67,453.46h.78l-3.1,2.8-.59-.17,2.91-2.63Zm8.72,2.94c-.33.08-.68.15-1,.21l3.44-3.1h.74l0,.05-3.14,2.84Zm-6.22.56-.74,0,3.81-3.44H633Z" transform="translate(-44.9 -31.83)"/><path class="cls-9" d="M622.64,453.44h.77l3.64,3.35-.93-.14-3.48-3.21Zm14.51,2.44-.57.19-2.8-2.58h.78l2.59,2.39Zm-4.48,1-.71.06-3.75-3.45H629Z" transform="translate(-44.9 -31.83)"/><polygon class="cls-7" points="579.7 421.62 586.29 445.36 586.14 445.87 584.41 445.86 577.14 421.61 579.7 421.62"/><path class="cls-9" d="M625.18,455.51l-2,1.79-.06-.21-.11-.35,2-1.79.16.56Zm1,3.48.16.56-1.91,1.73,0-.09-.14-.47,1.92-1.73Zm1.13,4,.15.56-1.84,1.67-.13-.45,0-.11,1.85-1.67Zm1.12,4,.16.56-1.77,1.6-.14-.45,0-.1,1.78-1.61Zm1.12,4,.16.56-1.7,1.54-.14-.44,0-.12,1.71-1.54Zm1.12,4,.16.56-1.63,1.48-.16-.56Z" transform="translate(-44.9 -31.83)"/><path class="cls-9" d="M623.41,453.44l1.6,1.48.27,1-2.64-2.44Zm3.5,8.32.27,1-3.25-3-.15-.5-.15-.49,3.28,3Zm1.91,6.85.26,1-3-2.8-.3-1,3.08,2.83Zm1.9,6.85.26,1-2.83-2.61-.3-1Z" transform="translate(-44.9 -31.83)"/><path class="cls-10" d="M639.22,444.22a5.89,5.89,0,0,1,2.22,4.41c0,4.09-5.07,7-11.37,6.93s-11.47-3-11.45-7.05a5.83,5.83,0,0,1,2.26-4.39,3.89,3.89,0,0,1-.21-1.27c0-1.83,1.27-3.47,3.25-4.57.34-3.55,5.94-3.55,4.41-7.55-.24-.63.39-.86.86-.7,3.4,1.2,7,4.11,7.19,8.13v.28c1.88,1.12,3.06,2.73,3,4.51A3.93,3.93,0,0,1,639.22,444.22Z" transform="translate(-44.9 -31.83)"/><path class="cls-11" d="M640,451.57c-2.1,2.45-6.13,3.57-10.1,3.49v-1.89c3.59,0,7.31-.84,9.51-2.44.69-.5,1.49-.22.59.84Zm-10.1-3.36v-1.64a14.78,14.78,0,0,0,7.79-1.84c.57-.38,1.12.13.33.94-1.7,1.73-5,2.57-8.12,2.54Zm0-6.33v-1.31a8.12,8.12,0,0,0,5-1.33c.84-.67.73.08.41.49a6.55,6.55,0,0,1-5.37,2.15Zm0-8.09v-2.32a1,1,0,0,1,.2.49A2.77,2.77,0,0,1,629.88,433.79Zm0,21.27c-5.42-.11-10.73-2.45-10.85-6.64-.06-2,1.16-3,1.15-1.13,0,4,4.71,5.83,9.7,5.88v1.89Zm0-23.59v2.32c-.84,1.86-3.34,3.16-3.22,4.66s1.54,2.05,3.22,2.12v1.31c-2.67-.06-5.16-1.34-5.07-3.4.13-2.64,4.79-3.9,4.76-6.56,0-.36.15-.61.31-.45Zm0,15.1c-3.91-.07-7.55-1.46-7.53-4.7,0-1.13-.59-.44-.76.1a4.44,4.44,0,0,0-.22,1.25c0,3.27,4.18,4.94,8.51,5Z" transform="translate(-44.9 -31.83)"/><path class="cls-12" d="M638.91,450.12c-2,1.64-5.49,2.41-8.83,2.33v-2.13c3.37.23,6.83-.25,8.48-1.2.64-.36,1.28.26.35,1Zm-8.83-3.93v-2.07a17.12,17.12,0,0,0,6.85-.61c.54-.23,1,.21.29.8-1.66,1.33-4.44,1.95-7.14,1.88Zm0-6V434a2.66,2.66,0,0,0,.25-2.1c-.12-.38.27-1,.6-.37,1.19,2.2-.46,4.14-.53,5.64-.09,2.35,2.74,2,4.5,1,.65-.4.6.19.34.43A7.82,7.82,0,0,1,630.08,440.16Zm0,12.29c-5-.14-9.78-2.22-9.29-6.23.11-.93.44-1.68.78-.13.57,2.67,4.48,4,8.51,4.23v2.13Zm0-18.47v6.18c-1.72-.07-3.08-.74-2.89-2s2.08-2.56,2.89-4.15Zm0,10.14c-3.25-.26-6.39-1.2-6.86-3.06-.31-1.24-.54-.64-.63.11-.39,3.23,3.45,4.91,7.49,5Z" transform="translate(-44.9 -31.83)"/><polygon class="cls-6" points="530.08 481.63 546.59 481.7 539.08 505.88 537.35 505.87 530.08 481.63"/><path class="cls-7" d="M575,513.45l16.51.07-.64,2.07A19.94,19.94,0,0,1,583,517a21.37,21.37,0,0,1-7.34-1.25Z" transform="translate(-44.9 -31.83)"/><path class="cls-8" d="M582.76,536.61v-.71l2.48-2.24-.31,1-2.17,2Zm0-5.06v-.7l4.66-4.21-.31,1-4.35,3.93Zm0-5v-.71l6.84-6.18-.31,1-6.53,5.9Zm0-5,8.72-7.87v-.06h-.74l-8,7.22v.71Zm0-5.05v-.71l2.42-2.19H586Zm-3.15-2.93h.78l-1.61,1.45v-.71l.83-.75Zm3.15,2.22v.71l-4,3.59v-.71l4-3.59Zm0,5v.71l-4,3.59v-.71l4-3.59Zm0,5v.71l-3,2.75-.17-.56,3.21-2.9Zm0,5.06v.7l-1.85,1.67-.17-.55,2-1.82Zm0,5v.71l-.66.59-.16-.56Zm-4-21-2.64,2.38-.17-.55,2.81-2.54v.71Zm0,4.35V520l-1.45,1.3-.16-.55,1.61-1.46Zm0,5.05V525l-.25.23-.17-.56Z" transform="translate(-44.9 -31.83)"/><path class="cls-8" d="M587.43,523.64l.71.66-.17.56-.54-.5v-.72Zm0-4.38v-.72l2,1.79-.18.56-1.77-1.63Zm0-5.1v-.66h.07l3.11,2.86-.17.56Zm-2.78,6.92,2.78,2.56v.72l-2.78-2.56v-.72Zm2.78-7.58v.66l-.71-.66Zm0,5v.72l-2.78-2.56V516l2.78,2.56ZM584.65,532v-.72l1,1-.17.56-.86-.79Zm0-5.1v-.72l2.26,2.08-.17.56Zm-9.07-13.44h.78l8.29,7.62v.72l-9.07-8.34Zm9.07,2.52-2.72-2.5h-.78l3.5,3.22V516Zm0,10.2-8.08-7.42.3,1,7.78,7.16v-.72Zm0,5.1V532L579,526.79l-.29-1,6,5.48Zm-.2,4.92-.17.55-3.19-2.92-.3-1Z" transform="translate(-44.9 -31.83)"/><path class="cls-9" d="M579.61,513.47h.78l-3.1,2.8-.59-.18,2.91-2.63Zm8.72,2.94c-.33.08-.67.16-1,.22l3.44-3.11h.74v.06l-3.15,2.83Zm-6.22.57-.74,0,3.81-3.44H586Z" transform="translate(-44.9 -31.83)"/><path class="cls-9" d="M575.58,513.46h.78L580,516.8l-.93-.14-3.48-3.2Zm14.51,2.43-.57.19-2.8-2.58h.78l2.59,2.39Zm-4.48,1-.7.06-3.76-3.45h.78Z" transform="translate(-44.9 -31.83)"/><polygon class="cls-7" points="532.65 481.64 539.24 505.37 539.08 505.88 537.35 505.87 530.08 481.63 532.65 481.64"/><path class="cls-9" d="M578.13,515.53l-2,1.78-.06-.21-.11-.34,2-1.8.17.57Zm1,3.47.15.57-1.91,1.72,0-.09-.14-.46,1.92-1.74Zm1.12,4,.16.57-1.84,1.66-.14-.45,0-.11,1.85-1.67Zm1.12,4,.16.57-1.77,1.6-.14-.46,0-.1,1.78-1.61Zm1.12,4,.16.57-1.7,1.53-.13-.44,0-.11,1.71-1.55Zm1.12,4,.16.57-1.63,1.47-.16-.56Z" transform="translate(-44.9 -31.83)"/><path class="cls-9" d="M576.36,513.46l1.6,1.47.26,1-2.64-2.43Zm3.5,8.32.27,1-3.26-3-.15-.49-.15-.49,3.29,3Zm1.9,6.84.27,1-3-2.8-.29-1,3.07,2.82Zm1.9,6.86.27.95-2.84-2.6-.3-1Z" transform="translate(-44.9 -31.83)"/><path class="cls-18" d="M592.16,504.23a5.91,5.91,0,0,1,2.22,4.42c0,4.08-5.07,7-11.37,6.92s-11.47-3-11.45-7a5.9,5.9,0,0,1,2.26-4.39,4.23,4.23,0,0,1-.2-1.28c0-1.83,1.26-3.46,3.24-4.57.34-3.55,5.95-3.55,4.41-7.54-.24-.63.39-.86.86-.7,3.4,1.2,7,4.11,7.19,8.12a2.72,2.72,0,0,1,0,.28c1.87,1.12,3,2.73,3,4.51A3.89,3.89,0,0,1,592.16,504.23Z" transform="translate(-44.9 -31.83)"/><path class="cls-19" d="M592.92,511.58c-2.1,2.46-6.13,3.57-10.1,3.49v-1.89c3.59,0,7.32-.84,9.51-2.43.69-.51,1.49-.22.59.83Zm-10.1-3.36v-1.64a14.67,14.67,0,0,0,7.79-1.84c.58-.38,1.12.14.33.94-1.7,1.73-4.94,2.58-8.12,2.54Zm0-6.32v-1.31a8.19,8.19,0,0,0,5-1.33c.84-.68.73.07.41.49a6.57,6.57,0,0,1-5.37,2.15Zm0-8.1v-2.32a1,1,0,0,1,.2.49A2.76,2.76,0,0,1,582.82,493.8Zm0,21.27c-5.42-.1-10.72-2.44-10.85-6.64-.06-2,1.16-3,1.15-1.13,0,4,4.72,5.83,9.7,5.88v1.89Zm0-23.59v2.32c-.84,1.86-3.34,3.16-3.22,4.66s1.54,2.06,3.22,2.13v1.31c-2.67-.07-5.16-1.35-5.07-3.41.13-2.63,4.79-3.89,4.76-6.56,0-.35.15-.61.31-.45Zm0,15.1c-3.91-.07-7.54-1.46-7.53-4.7,0-1.13-.59-.44-.76.1a4.9,4.9,0,0,0-.22,1.25c0,3.27,4.19,4.95,8.51,5Z" transform="translate(-44.9 -31.83)"/><path class="cls-20" d="M591.86,510.13c-2.06,1.65-5.5,2.42-8.84,2.33v-2.13c3.37.23,6.83-.24,8.48-1.19.64-.36,1.28.26.36,1ZM583,506.2v-2.07a17,17,0,0,0,6.86-.61c.53-.23,1,.21.28.8-1.66,1.33-4.44,2-7.14,1.88Zm0-6V494a2.63,2.63,0,0,0,.25-2.09c-.12-.38.28-1,.6-.38,1.19,2.2-.46,4.15-.52,5.64-.1,2.36,2.73,2,4.49,1,.66-.39.61.19.34.43A7.77,7.77,0,0,1,583,500.17Zm0,12.29c-5-.13-9.78-2.21-9.29-6.22.11-.93.44-1.69.78-.13.57,2.67,4.48,3.95,8.51,4.22v2.13ZM583,494v6.18c-1.72-.07-3.08-.73-2.89-2s2.08-2.57,2.89-4.16Zm0,10.14c-3.24-.26-6.39-1.19-6.86-3.06-.31-1.24-.53-.64-.62.11-.4,3.24,3.45,4.91,7.48,5Z" transform="translate(-44.9 -31.83)"/><polygon class="cls-6" points="553.61 481.63 570.12 481.7 562.61 505.88 560.88 505.87 553.61 481.63"/><path class="cls-7" d="M598.51,513.45l16.51.07-.64,2.07a20,20,0,0,1-7.84,1.41,21.37,21.37,0,0,1-7.34-1.25Z" transform="translate(-44.9 -31.83)"/><path class="cls-8" d="M606.29,536.61v-.71l2.48-2.24-.31,1-2.17,2Zm0-5.06v-.7l4.66-4.21-.31,1-4.35,3.93Zm0-5v-.71l6.84-6.18-.31,1-6.53,5.9Zm0-5,8.71-7.87,0-.06h-.74l-8,7.22v.71Zm0-5.05v-.71l2.42-2.19h.78Zm-3.15-2.93h.78l-1.61,1.46v-.72l.83-.75Zm3.15,2.22v.71l-4,3.59v-.71l4-3.59Zm0,5v.71l-4,3.59v-.71l4-3.59Zm0,5v.71l-3,2.75-.17-.56,3.21-2.9Zm0,5.06v.7l-1.85,1.67-.17-.55,2-1.82Zm0,5v.71l-.66.59-.17-.56Zm-4-21-2.64,2.37-.17-.55,2.81-2.54v.72Zm0,4.34V520l-1.45,1.3-.16-.55,1.61-1.46Zm0,5.05V525l-.26.23-.16-.56Z" transform="translate(-44.9 -31.83)"/><path class="cls-8" d="M611,523.64l.71.66-.17.56-.54-.5v-.72Zm0-4.38v-.72l1.95,1.79-.18.56L611,519.26Zm0-5.1v-.66H611l3.11,2.86-.17.56Zm-2.79,6.92,2.79,2.56v.72l-2.79-2.56v-.72ZM611,513.5v.66l-.71-.66Zm0,5v.72l-2.79-2.56V516l2.79,2.56ZM608.17,532v-.72l1,1-.17.56-.87-.79Zm0-5.11v-.71l2.27,2.08-.17.56Zm-9.06-13.43h.78l8.28,7.62v.72l-9.06-8.34Zm9.06,2.52-2.71-2.5h-.78l3.49,3.22V516Zm0,10.2-8.07-7.42.3,1,7.77,7.15v-.71Zm0,5.1V532l-5.66-5.21-.3-1,6,5.48ZM608,536.2l-.18.55-3.18-2.92-.29-1Z" transform="translate(-44.9 -31.83)"/><path class="cls-9" d="M603.14,513.47h.78l-3.1,2.8-.59-.18,2.91-2.63Zm8.72,2.94c-.33.08-.67.16-1,.22l3.44-3.11H615l0,.06-3.14,2.83Zm-6.22.57-.74,0,3.81-3.44h.78Z" transform="translate(-44.9 -31.83)"/><path class="cls-9" d="M599.11,513.46h.78l3.63,3.34-.93-.14-3.48-3.2Zm14.51,2.43c-.18.07-.37.13-.57.19l-2.8-2.58H611l2.59,2.39Zm-4.48,1c-.23,0-.47,0-.71.06l-3.75-3.45h.78Z" transform="translate(-44.9 -31.83)"/><polygon class="cls-7" points="556.17 481.64 562.76 505.37 562.61 505.88 560.88 505.87 553.61 481.63 556.17 481.64"/><path class="cls-9" d="M601.65,515.53l-2,1.78-.07-.21-.1-.34,2-1.8.16.57Zm1,3.47.15.57-1.91,1.72,0-.09-.14-.46,1.92-1.74Zm1.12,4,.15.57-1.84,1.66-.13-.45,0-.11,1.85-1.67Zm1.12,4,.16.57-1.77,1.6-.14-.46,0-.1,1.78-1.61Zm1.12,4,.16.57-1.7,1.53-.13-.44,0-.11,1.71-1.55Zm1.12,4,.16.57-1.63,1.47-.17-.56Z" transform="translate(-44.9 -31.83)"/><path class="cls-9" d="M599.89,513.46l1.6,1.47.26,1-2.64-2.43Zm3.5,8.32.26,1-3.25-3-.15-.49-.15-.49,3.29,3Zm1.9,6.84.27,1-3-2.8-.3-1,3.08,2.82Zm1.9,6.86.27.95-2.84-2.6-.29-1Z" transform="translate(-44.9 -31.83)"/><path class="cls-21" d="M615.69,504.23a5.91,5.91,0,0,1,2.22,4.42c0,4.08-5.07,7-11.37,6.92s-11.47-3-11.45-7a5.83,5.83,0,0,1,2.26-4.39,4,4,0,0,1-.21-1.28c0-1.83,1.27-3.46,3.25-4.57.34-3.55,5.94-3.55,4.41-7.54-.24-.63.39-.86.86-.7,3.4,1.2,7,4.11,7.19,8.12v.28c1.88,1.12,3.06,2.73,3,4.51A3.89,3.89,0,0,1,615.69,504.23Z" transform="translate(-44.9 -31.83)"/><path class="cls-22" d="M616.45,511.58c-2.1,2.46-6.13,3.57-10.1,3.49v-1.89c3.59,0,7.31-.84,9.51-2.43.69-.51,1.5-.22.59.83Zm-10.1-3.36v-1.64a14.67,14.67,0,0,0,7.79-1.84c.57-.38,1.12.14.33.94-1.7,1.73-4.94,2.58-8.12,2.54Zm0-6.32v-1.31a8.19,8.19,0,0,0,5-1.33c.84-.68.74.07.41.49a6.58,6.58,0,0,1-5.37,2.15Zm0-8.1v-2.32a1.21,1.21,0,0,1,.21.49A2.83,2.83,0,0,1,606.35,493.8Zm0,21.27c-5.42-.1-10.72-2.44-10.85-6.64-.06-2,1.16-3,1.15-1.13,0,4,4.71,5.83,9.7,5.88v1.89Zm0-23.59v2.32c-.84,1.86-3.34,3.16-3.22,4.66s1.54,2.06,3.22,2.13v1.31c-2.67-.07-5.16-1.35-5.06-3.41.12-2.63,4.78-3.89,4.75-6.56,0-.35.15-.61.31-.45Zm0,15.1c-3.91-.06-7.55-1.46-7.53-4.7,0-1.13-.59-.44-.76.1a4.5,4.5,0,0,0-.22,1.25c0,3.27,4.18,4.95,8.51,5Z" transform="translate(-44.9 -31.83)"/><path class="cls-23" d="M615.39,510.13c-2.06,1.65-5.5,2.42-8.84,2.33v-2.13c3.37.23,6.83-.24,8.48-1.19.64-.36,1.28.26.36,1Zm-8.84-3.93v-2.07a16.94,16.94,0,0,0,6.85-.61c.54-.23,1,.21.29.8-1.66,1.33-4.44,2-7.14,1.88Zm0-6V494a2.63,2.63,0,0,0,.25-2.09c-.12-.38.27-1,.6-.38,1.19,2.2-.46,4.15-.52,5.64-.1,2.36,2.73,2,4.49,1,.66-.39.61.19.34.43A7.82,7.82,0,0,1,606.55,500.17Zm0,12.29c-5-.13-9.78-2.21-9.29-6.22.11-.93.44-1.69.78-.13.57,2.67,4.48,3.95,8.51,4.22v2.13Zm0-18.47v6.18c-1.72-.07-3.08-.73-2.89-2s2.08-2.57,2.89-4.16Zm0,10.14c-3.24-.26-6.39-1.19-6.86-3.06-.31-1.24-.53-.64-.62.11-.4,3.24,3.45,4.91,7.48,5Z" transform="translate(-44.9 -31.83)"/><polygon class="cls-6" points="577.14 481.63 593.64 481.7 586.14 505.88 584.41 505.87 577.14 481.63"/><path class="cls-7" d="M622,513.45l16.51.07-.64,2.07a20,20,0,0,1-7.84,1.41,21.37,21.37,0,0,1-7.34-1.25Z" transform="translate(-44.9 -31.83)"/><path class="cls-8" d="M629.82,536.61v-.71l2.47-2.24-.3,1-2.17,2Zm0-5.06v-.7l4.66-4.21-.31,1-4.35,3.93Zm0-5v-.71l6.84-6.18-.31,1-6.53,5.9Zm0-5,8.71-7.87,0-.06h-.74l-8,7.22v.71Zm0-5.05v-.71l2.42-2.19H633Zm-3.15-2.93h.78l-1.61,1.46v-.71l.83-.76Zm3.15,2.22v.71l-4,3.59v-.71l4-3.59Zm0,5v.71l-4,3.59v-.71l4-3.59Zm0,5v.71l-3,2.75-.17-.56,3.21-2.9Zm0,5.06v.7L628,533.22l-.17-.55,2-1.82Zm0,5v.71l-.66.59-.16-.56Zm-4-21-2.64,2.37-.17-.55,2.81-2.53v.71Zm0,4.34V520l-1.45,1.3-.17-.55,1.62-1.46Zm0,5.05V525l-.25.23-.17-.56Z" transform="translate(-44.9 -31.83)"/><path class="cls-8" d="M634.49,523.64l.71.66-.17.56-.54-.5v-.72Zm0-4.38v-.72l1.94,1.79-.17.56-1.77-1.63Zm0-5.1v-.66h.07l3.11,2.86-.18.56Zm-2.79,6.92,2.79,2.56v.72l-2.79-2.56v-.72Zm2.79-7.58v.66l-.71-.66Zm0,5v.72l-2.79-2.56V516l2.79,2.56ZM631.7,532v-.72l1,1-.17.56-.87-.79Zm0-5.11v-.71l2.27,2.08-.17.56Zm-9.06-13.43h.77l8.29,7.62v.72l-9.06-8.34ZM631.7,516l-2.71-2.5h-.78l3.49,3.22V516Zm0,10.2-8.07-7.42.3,1,7.77,7.15v-.71Zm0,5.1V532L626,526.79l-.3-1,6,5.48Zm-.19,4.92-.18.55-3.18-2.92-.3-1Z" transform="translate(-44.9 -31.83)"/><path class="cls-9" d="M626.67,513.47h.78l-3.1,2.8-.59-.18,2.91-2.63Zm8.72,2.94c-.33.08-.68.16-1,.22l3.44-3.11h.74l0,.06-3.14,2.83Zm-6.22.57-.74,0,3.81-3.44H633Z" transform="translate(-44.9 -31.83)"/><path class="cls-9" d="M622.64,513.46h.77l3.64,3.34-.93-.14-3.48-3.2Zm14.51,2.43-.57.19-2.8-2.58h.78l2.59,2.39Zm-4.48,1c-.23,0-.47,0-.71.06l-3.75-3.45H629Z" transform="translate(-44.9 -31.83)"/><polygon class="cls-7" points="579.7 481.64 586.29 505.37 586.14 505.88 584.41 505.87 577.14 481.63 579.7 481.64"/><path class="cls-9" d="M625.18,515.53l-2,1.78-.06-.21-.11-.34,2-1.8.16.57Zm1,3.47.16.57-1.91,1.72,0-.09-.14-.46,1.92-1.74Zm1.13,4,.15.57-1.83,1.66-.14-.45,0-.11,1.85-1.67Zm1.12,4,.16.57-1.77,1.6-.14-.46,0-.1,1.78-1.61Zm1.12,4,.16.57-1.7,1.53-.14-.44,0-.11,1.71-1.55Zm1.12,4,.16.57-1.63,1.47-.16-.56Z" transform="translate(-44.9 -31.83)"/><path class="cls-9" d="M623.41,513.46l1.6,1.47.27,1-2.64-2.43Zm3.5,8.32.27,1-3.25-3-.15-.49-.15-.49,3.28,3Zm1.91,6.84.26,1-3-2.8-.3-1,3.08,2.82Zm1.9,6.86.26.95-2.83-2.6-.3-1Z" transform="translate(-44.9 -31.83)"/><path class="cls-20" d="M639.22,504.23a5.91,5.91,0,0,1,2.22,4.42c0,4.08-5.07,7-11.37,6.92s-11.47-3-11.45-7a5.83,5.83,0,0,1,2.26-4.39,4,4,0,0,1-.21-1.28c0-1.83,1.27-3.46,3.25-4.57.34-3.55,5.94-3.55,4.41-7.54-.24-.63.39-.86.86-.7,3.4,1.2,7,4.11,7.19,8.12v.28c1.88,1.12,3.06,2.73,3,4.51A3.89,3.89,0,0,1,639.22,504.23Z" transform="translate(-44.9 -31.83)"/><path class="cls-18" d="M640,511.58c-2.1,2.46-6.13,3.57-10.1,3.49v-1.89c3.59,0,7.31-.84,9.51-2.43.69-.51,1.49-.22.59.83Zm-10.1-3.36v-1.64a14.69,14.69,0,0,0,7.79-1.84c.57-.38,1.12.14.33.94-1.7,1.73-5,2.58-8.12,2.54Zm0-6.32v-1.31a8.19,8.19,0,0,0,5-1.33c.84-.68.73.07.41.49a6.58,6.58,0,0,1-5.37,2.15Zm0-8.1v-2.32a1.1,1.1,0,0,1,.2.49A2.76,2.76,0,0,1,629.88,493.8Zm0,21.27c-5.42-.1-10.73-2.44-10.85-6.64-.06-2,1.16-3,1.15-1.13,0,4,4.71,5.83,9.7,5.88v1.89Zm0-23.59v2.32c-.84,1.86-3.34,3.16-3.22,4.66s1.54,2.06,3.22,2.13v1.31c-2.67-.07-5.16-1.35-5.07-3.41.13-2.63,4.79-3.89,4.76-6.56,0-.35.15-.61.31-.45Zm0,15.1c-3.91-.07-7.55-1.46-7.53-4.7,0-1.13-.59-.44-.76.1a4.5,4.5,0,0,0-.22,1.25c0,3.27,4.18,4.95,8.51,5Z" transform="translate(-44.9 -31.83)"/><path class="cls-24" d="M638.91,510.13c-2,1.65-5.49,2.42-8.83,2.33v-2.13c3.37.23,6.83-.24,8.48-1.19.64-.36,1.28.26.35,1Zm-8.83-3.93v-2.07a16.94,16.94,0,0,0,6.85-.61c.54-.23,1,.21.29.8-1.66,1.33-4.44,1.95-7.14,1.88Zm0-6V494a2.63,2.63,0,0,0,.25-2.09c-.12-.38.27-1,.6-.38,1.19,2.2-.46,4.15-.53,5.64-.09,2.36,2.74,2,4.5,1,.65-.39.6.19.34.43A7.77,7.77,0,0,1,630.08,500.17Zm0,12.29c-5-.14-9.78-2.21-9.29-6.22.11-.93.44-1.69.78-.13.57,2.67,4.48,3.95,8.51,4.22v2.13Zm0-18.47v6.18c-1.72-.07-3.08-.73-2.89-2s2.08-2.57,2.89-4.16Zm0,10.14c-3.25-.26-6.39-1.19-6.86-3.06-.31-1.24-.54-.64-.63.11-.39,3.24,3.45,4.91,7.49,5Z" transform="translate(-44.9 -31.83)"/><rect class="cls-25" x="517.34" y="450.27" width="91.82" height="3.49"/><rect class="cls-25" x="517.34" y="510.29" width="91.82" height="3.49"/><rect class="cls-25" x="517.34" y="376.07" width="91.82" height="17.68"/><rect class="cls-25" x="517.34" y="390.26" width="3.83" height="123.52"/><rect class="cls-25" x="605.33" y="390.26" width="3.83" height="123.52"/><rect class="cls-3" x="524.17" y="379.38" width="78.16" height="11.05"/><rect class="cls-26" x="236.75" y="444.15" width="14.75" height="47.67"/><rect class="cls-26" x="215.36" y="425.23" width="57.55" height="18.92"/><rect class="cls-27" x="217.33" y="426.53" width="53.59" height="16.33"/><rect class="cls-28" x="221.02" y="428.75" width="46.22" height="11.89"/><rect class="cls-27" x="240.82" y="444.15" width="6.62" height="47.67"/><polygon class="cls-29" points="200.88 513.78 235.23 513.78 253.03 513.78 287.38 513.78 287.38 469.87 200.88 469.87 200.88 513.78"/><polygon class="cls-30" points="282.36 511.23 252 511.23 236.26 511.23 205.9 511.23 205.9 472.41 282.36 472.41 282.36 511.23"/><polygon class="cls-31" points="102.25 280.93 149.12 280.93 168.72 245.08 125.41 245.08 102.25 280.93"/><polygon class="cls-32" points="196 280.93 149.12 280.93 168.72 245.08 212.03 245.08 196 280.93"/><polygon class="cls-31" points="196 280.93 242.87 280.93 255.34 245.08 212.03 245.08 196 280.93"/><polygon class="cls-32" points="289.74 280.93 242.87 280.93 255.34 245.08 298.65 245.08 289.74 280.93"/><polygon class="cls-31" points="289.74 280.93 336.61 280.93 341.96 245.08 298.65 245.08 289.74 280.93"/><polygon class="cls-32" points="383.49 280.93 336.61 280.93 341.96 245.08 385.27 245.08 383.49 280.93"/><polygon class="cls-31" points="383.49 280.93 430.36 280.93 428.58 245.08 385.27 245.08 383.49 280.93"/><polygon class="cls-32" points="477.23 280.93 430.36 280.93 428.58 245.08 471.89 245.08 477.23 280.93"/><polygon class="cls-31" points="477.23 280.93 524.1 280.93 515.2 245.08 471.89 245.08 477.23 280.93"/><polygon class="cls-32" points="570.98 280.93 524.1 280.93 515.2 245.08 558.51 245.08 570.98 280.93"/><polygon class="cls-31" points="570.98 280.93 617.85 280.93 601.82 245.08 558.51 245.08 570.98 280.93"/><polygon class="cls-32" points="664.72 280.93 617.85 280.93 601.82 245.08 645.13 245.08 664.72 280.93"/><polygon class="cls-31" points="664.72 280.93 711.6 280.93 688.44 245.08 645.13 245.08 664.72 280.93"/><path class="cls-33" d="M194,312.76c0,11.79-10.49,21.35-23.44,21.35s-23.43-9.56-23.43-21.35Z" transform="translate(-44.9 -31.83)"/><path class="cls-34" d="M194,312.76c0,11.79,10.49,21.35,23.43,21.35s23.44-9.56,23.44-21.35Z" transform="translate(-44.9 -31.83)"/><path class="cls-33" d="M287.77,312.76c0,11.79-10.49,21.35-23.43,21.35s-23.44-9.56-23.44-21.35Z" transform="translate(-44.9 -31.83)"/><path class="cls-34" d="M287.77,312.76c0,11.79,10.5,21.35,23.44,21.35s23.44-9.56,23.44-21.35Z" transform="translate(-44.9 -31.83)"/><path class="cls-33" d="M381.52,312.76c0,11.79-10.5,21.35-23.44,21.35s-23.43-9.56-23.43-21.35Z" transform="translate(-44.9 -31.83)"/><path class="cls-34" d="M381.52,312.76c0,11.79,10.49,21.35,23.44,21.35s23.43-9.56,23.43-21.35Z" transform="translate(-44.9 -31.83)"/><path class="cls-33" d="M475.26,312.76c0,11.79-10.49,21.35-23.43,21.35s-23.44-9.56-23.44-21.35Z" transform="translate(-44.9 -31.83)"/><path class="cls-34" d="M475.26,312.76c0,11.79,10.5,21.35,23.44,21.35s23.44-9.56,23.44-21.35Z" transform="translate(-44.9 -31.83)"/><path class="cls-33" d="M569,312.76c0,11.79-10.49,21.35-23.44,21.35s-23.43-9.56-23.43-21.35Z" transform="translate(-44.9 -31.83)"/><path class="cls-34" d="M569,312.76c0,11.79,10.49,21.35,23.44,21.35s23.43-9.56,23.43-21.35Z" transform="translate(-44.9 -31.83)"/><path class="cls-33" d="M662.76,312.76c0,11.79-10.5,21.35-23.44,21.35s-23.44-9.56-23.44-21.35Z" transform="translate(-44.9 -31.83)"/><path class="cls-34" d="M662.76,312.76c0,11.79,10.49,21.35,23.43,21.35s23.44-9.56,23.44-21.35Z" transform="translate(-44.9 -31.83)"/><path class="cls-33" d="M756.5,312.76c0,11.79-10.49,21.35-23.44,21.35s-23.43-9.56-23.43-21.35Z" transform="translate(-44.9 -31.83)"/><rect class="cls-4" x="151.22" y="716.06" width="511.41" height="17.53"/></svg>